# xmcd CD database file
#
# Track frame offsets:
#	150
#	13655
#	22982
#	37500
#	48462
#	58987
#	70892
#	82075
#	96117
#	107495
#	125617
#	137780
#	152555
#	171015
#
# Disc length: 2464 seconds
#
# Revision: 2
# Processed by: cddbd v1.4PL0 Copyright (c) Steve Scherf et al.
# Submitted via: CDex 1.50Beta3
#
DISCID=b1099e0e
DTITLE=The Fevers - Para Sempre
DYEAR=2002
DGENRE=Rock
TTITLE0=Mar De Rosas (Rose Garden)
TTITLE1=Agora Eu Sei (I've Been Hurt)
TTITLE2=Vem Me Ajudar (Help Get Me Some Help)
TTITLE3=Já Cansei (It's Too Late)
TTITLE4=Sou Feliz (I'm So Happy)
TTITLE5=Oh Me Oh My
TTITLE6=Lady Madonna
TTITLE7=Cândida
TTITLE8=De Que Vale Tanto Amor
TTITLE9=Ninguém Vive Sem Amor
TTITLE10=Nathalie
TTITLE11=Elas Por Elas (Coisas Da Vida
TTITLE12=Guerra Dos Sexos
TTITLE13=Paloma Branca (White Dove)
EXTD=YEAR: 2002
EXTT0=
EXTT1=
EXTT2=
EXTT3=
EXTT4=
EXTT5=
EXTT6=
EXTT7=
EXTT8=
EXTT9=
EXTT10=
EXTT11=
EXTT12=
EXTT13=
PLAYORDER=
